<svg width="128" height="128" viewBox="0 0 128 128" fill="none" xmlns="http://www.w3.org/2000/svg">
<path d="M108.625 57.625H105.438V44.8698C105.437 43.744 104.99 42.6644 104.194 41.8683C103.398 41.0723 102.318 40.6251 101.193 40.625H96.9318C96.3744 40.625 95.8224 40.7348 95.3074 40.9481C94.7925 41.1614 94.3246 41.4741 93.9304 41.8683C93.5363 42.2625 93.2237 42.7304 93.0104 43.2454C92.7972 43.7604 92.6874 44.3124 92.6875 44.8698V83.1307C92.6875 83.6881 92.7972 84.24 93.0105 84.755C93.2238 85.2699 93.5364 85.7378 93.9306 86.1319C94.3247 86.5261 94.7926 86.8387 95.3075 87.052C95.8225 87.2653 96.3744 87.375 96.9318 87.375H101.193C102.318 87.3749 103.398 86.9278 104.194 86.1318C104.99 85.3359 105.437 84.2564 105.438 83.1307V70.375H108.625C110.316 70.375 111.937 69.7034 113.133 68.5078C114.328 67.3123 115 65.6908 115 64C115 62.3092 114.328 60.6877 113.133 59.4922C111.937 58.2966 110.316 57.625 108.625 57.625Z" fill="white"/>
<path d="M82.0537 36.375H77.8208C76.6914 36.3751 75.6083 36.8239 74.8097 37.6226C74.0111 38.4212 73.5625 39.5044 73.5625 40.6338V57.625H54.4375V40.6338C54.4374 39.5043 53.9886 38.4212 53.19 37.6225C52.3913 36.8239 51.3082 36.3751 50.1787 36.375H45.9458C44.8164 36.3751 43.7333 36.8239 42.9347 37.6226C42.1361 38.4212 41.6875 39.5044 41.6875 40.6338V87.3667C41.6875 88.4961 42.1362 89.5792 42.9348 90.3777C43.7333 91.1763 44.8164 91.625 45.9458 91.625H50.1787C51.3081 91.625 52.3913 91.1764 53.1899 90.3778C53.9886 89.5792 54.4374 88.4961 54.4375 87.3667V70.375H73.5625V87.3667C73.5625 88.4961 74.0112 89.5792 74.8098 90.3777C75.6083 91.1763 76.6914 91.625 77.8208 91.625H82.0537C83.1831 91.625 84.2663 91.1764 85.0649 90.3778C85.8636 89.5792 86.3124 88.4961 86.3125 87.3667V40.6338C86.3124 39.5043 85.8636 38.4212 85.065 37.6225C84.2663 36.8239 83.1831 36.3751 82.0537 36.375Z" fill="white"/>
<path d="M31.0677 40.625H26.8068C26.2494 40.625 25.6974 40.7348 25.1824 40.9481C24.6675 41.1614 24.1996 41.4741 23.8054 41.8683C23.4113 42.2625 23.0987 42.7304 22.8854 43.2454C22.6722 43.7604 22.5624 44.3124 22.5625 44.8698V57.625H19.375C17.6842 57.625 16.0627 58.2966 14.8672 59.4922C13.6716 60.6877 13 62.3092 13 64C13 65.6908 13.6716 67.3123 14.8672 68.5078C16.0627 69.7034 17.6842 70.375 19.375 70.375H22.5625V83.1307C22.5625 83.6881 22.6722 84.24 22.8855 84.755C23.0988 85.2699 23.4115 85.7378 23.8056 86.1319C24.1997 86.5261 24.6676 86.8387 25.1826 87.052C25.6975 87.2653 26.2494 87.375 26.8068 87.375H31.0677C32.1934 87.3749 33.273 86.9278 34.069 86.1318C34.865 85.3359 35.3123 84.2564 35.3125 83.1307V44.8698C35.3124 43.744 34.8652 42.6644 34.0692 41.8683C33.2731 41.0723 32.1935 40.6251 31.0677 40.625Z" fill="white"/>
</svg>
